{
	"asset":{
		"generator":"Khronos glTF Blender I/O v4.2.57",
		"version":"2.0"
	},
	"scene":0,
	"scenes":[
		{
			"name":"Scene",
			"nodes":[
				0,
				1
			]
		}
	],
	"nodes":[
		{
			"mesh":0,
			"name":"greenhouse",
			"translation":[
				-0.5745024681091309,
				-0.33298352360725403,
				-0.590093195438385
			]
		},
		{
			"mesh":1,
			"name":"indoor",
			"translation":[
				-0.5745024681091309,
				-0.33298352360725403,
				-0.590093195438385
			]
		}
	],
	"meshes":[
		{
			"name":"greenhouse",
			"primitives":[
				{
					"attributes":{
						"POSITION":0,
						"NORMAL":1,
						"TEXCOORD_0":2
					},
					"indices":3
				}
			]
		},
		{
			"name":"greenhouse.001",
			"primitives":[
				{
					"attributes":{
						"POSITION":4,
						"NORMAL":5,
						"TEXCOORD_0":6
					},
					"indices":7
				}
			]
		}
	],
	"accessors":[
		{
			"bufferView":0,
			"componentType":5126,
			"count":50,
			"max":[
				0.49215421080589294,
				0.4848592281341553,
				0.49215421080589294
			],
			"min":[
				-0.49215421080589294,
				-0.00012167294335085899,
				-0.49215421080589294
			],
			"type":"VEC3"
		},
		{
			"bufferView":1,
			"componentType":5126,
			"count":50,
			"type":"VEC3"
		},
		{
			"bufferView":2,
			"componentType":5126,
			"count":50,
			"type":"VEC2"
		},
		{
			"bufferView":3,
			"componentType":5123,
			"count":114,
			"type":"SCALAR"
		},
		{
			"bufferView":4,
			"componentType":5126,
			"count":50,
			"max":[
				0.49215421080589294,
				0.2902131974697113,
				0.49215421080589294
			],
			"min":[
				-0.49215421080589294,
				-0.00012167294335085899,
				-0.49215421080589294
			],
			"type":"VEC3"
		},
		{
			"bufferView":5,
			"componentType":5126,
			"count":50,
			"type":"VEC3"
		},
		{
			"bufferView":6,
			"componentType":5126,
			"count":50,
			"type":"VEC2"
		},
		{
			"bufferView":7,
			"componentType":5123,
			"count":114,
			"type":"SCALAR"
		}
	],
	"bufferViews":[
		{
			"buffer":0,
			"byteLength":600,
			"byteOffset":0,
			"target":34962
		},
		{
			"buffer":0,
			"byteLength":600,
			"byteOffset":600,
			"target":34962
		},
		{
			"buffer":0,
			"byteLength":400,
			"byteOffset":1200,
			"target":34962
		},
		{
			"buffer":0,
			"byteLength":228,
			"byteOffset":1600,
			"target":34963
		},
		{
			"buffer":0,
			"byteLength":600,
			"byteOffset":1828,
			"target":34962
		},
		{
			"buffer":0,
			"byteLength":600,
			"byteOffset":2428,
			"target":34962
		},
		{
			"buffer":0,
			"byteLength":400,
			"byteOffset":3028,
			"target":34962
		},
		{
			"buffer":0,
			"byteLength":228,
			"byteOffset":3428,
			"target":34963
		}
	],
	"buffers":[
		{
			"byteLength":3656,
			"uri":"indoor.bin"
		}
	]
}
